<svg data-v-fde0c5aa="" xmlns="http://www.w3.org/2000/svg" viewBox="0 0 300 300" class="iconAbove"><!----><defs data-v-fde0c5aa=""><!----></defs><rect data-v-fde0c5aa="" fill="transparent" x="0" y="0" width="300px" height="300px" class="logo-background-square"></rect><defs data-v-fde0c5aa=""><!----></defs><g data-v-fde0c5aa="" id="63de5bdc-c16c-4ed8-8a86-4fa70417972a" fill="#000000" transform="matrix(1.9619679415753746,0,0,1.9619679415753746,18.62662246428569,162.8356476438632)"><path d="M5.54 13.24L5.54 13.24L5.54 13.24Q3.18 13.24 1.94 11.93L1.94 11.93L1.94 11.93Q0.70 10.61 0.70 8.19L0.70 8.19L0.70 8.19Q0.70 6.99 1.08 6.04L1.08 6.04L1.08 6.04Q1.46 5.10 2.11 4.45L2.11 4.45L2.11 4.45Q2.77 3.79 3.68 3.46L3.68 3.46L3.68 3.46Q4.59 3.12 5.66 3.12L5.66 3.12L5.66 3.12Q6.27 3.12 6.78 3.21L6.78 3.21L6.78 3.21Q7.28 3.30 7.66 3.42L7.66 3.42L7.66 3.42Q8.04 3.54 8.29 3.67L8.29 3.67L8.29 3.67Q8.54 3.79 8.65 3.86L8.65 3.86L8.02 5.63L8.02 5.63Q7.57 5.39 6.98 5.22L6.98 5.22L6.98 5.22Q6.38 5.05 5.63 5.05L5.63 5.05L5.63 5.05Q5.12 5.05 4.64 5.22L4.64 5.22L4.64 5.22Q4.16 5.39 3.79 5.76L3.79 5.76L3.79 5.76Q3.42 6.13 3.19 6.72L3.19 6.72L3.19 6.72Q2.97 7.31 2.97 8.15L2.97 8.15L2.97 8.15Q2.97 8.82 3.12 9.40L3.12 9.40L3.12 9.40Q3.26 9.98 3.59 10.40L3.59 10.40L3.59 10.40Q3.92 10.82 4.45 11.07L4.45 11.07L4.45 11.07Q4.98 11.31 5.74 11.31L5.74 11.31L5.74 11.31Q6.22 11.31 6.59 11.26L6.59 11.26L6.59 11.26Q6.97 11.20 7.27 11.12L7.27 11.12L7.27 11.12Q7.56 11.05 7.78 10.95L7.78 10.95L7.78 10.95Q8.01 10.85 8.19 10.77L8.19 10.77L8.79 12.52L8.79 12.52Q8.33 12.80 7.49 13.02L7.49 13.02L7.49 13.02Q6.65 13.24 5.54 13.24ZM12.03 8.19L12.03 8.19L12.03 8.19Q12.03 8.90 12.20 9.48L12.20 9.48L12.20 9.48Q12.38 10.05 12.71 10.46L12.71 10.46L12.71 10.46Q13.03 10.88 13.51 11.10L13.51 11.10L13.51 11.10Q13.99 11.33 14.60 11.33L14.60 11.33L14.60 11.33Q15.20 11.33 15.69 11.10L15.69 11.10L15.69 11.10Q16.17 10.88 16.50 10.46L16.50 10.46L16.50 10.46Q16.83 10.05 17.00 9.48L17.00 9.48L17.00 9.48Q17.18 8.90 17.18 8.19L17.18 8.19L17.18 8.19Q17.18 7.48 17.00 6.89L17.00 6.89L17.00 6.89Q16.83 6.31 16.50 5.90L16.50 5.90L16.50 5.90Q16.17 5.49 15.69 5.26L15.69 5.26L15.69 5.26Q15.20 5.04 14.60 5.04L14.60 5.04L14.60 5.04Q13.99 5.04 13.51 5.27L13.51 5.27L13.51 5.27Q13.03 5.50 12.71 5.92L12.71 5.92L12.71 5.92Q12.38 6.33 12.20 6.91L12.20 6.91L12.20 6.91Q12.03 7.49 12.03 8.19ZM19.43 8.19L19.43 8.19L19.43 8.19Q19.43 9.44 19.06 10.38L19.06 10.38L19.06 10.38Q18.69 11.33 18.05 11.96L18.05 11.96L18.05 11.96Q17.40 12.60 16.51 12.92L16.51 12.92L16.51 12.92Q15.62 13.24 14.60 13.24L14.60 13.24L14.60 13.24Q13.61 13.24 12.73 12.92L12.73 12.92L12.73 12.92Q11.84 12.60 11.19 11.96L11.19 11.96L11.19 11.96Q10.53 11.33 10.15 10.38L10.15 10.38L10.15 10.38Q9.77 9.44 9.77 8.19L9.77 8.19L9.77 8.19Q9.77 6.94 10.16 6.00L10.16 6.00L10.16 6.00Q10.56 5.05 11.22 4.41L11.22 4.41L11.22 4.41Q11.89 3.77 12.76 3.44L12.76 3.44L12.76 3.44Q13.64 3.12 14.60 3.12L14.60 3.12L14.60 3.12Q15.60 3.12 16.48 3.44L16.48 3.44L16.48 3.44Q17.36 3.77 18.02 4.41L18.02 4.41L18.02 4.41Q18.68 5.05 19.05 6.00L19.05 6.00L19.05 6.00Q19.43 6.94 19.43 8.19ZM26.24 13.05L24.14 13.05L24.14 13.05Q23.56 11.83 23.00 10.51L23.00 10.51L23.00 10.51Q22.44 9.20 21.94 7.91L21.94 7.91L21.94 7.91Q21.43 6.62 21.01 5.45L21.01 5.45L21.01 5.45Q20.58 4.27 20.27 3.35L20.27 3.35L22.68 3.35L22.68 3.35Q22.96 4.19 23.29 5.16L23.29 5.16L23.29 5.16Q23.62 6.13 23.96 7.10L23.96 7.10L23.96 7.10Q24.30 8.06 24.63 8.95L24.63 8.95L24.63 8.95Q24.95 9.83 25.23 10.47L25.23 10.47L25.23 10.47Q25.49 9.83 25.82 8.95L25.82 8.95L25.82 8.95Q26.15 8.06 26.50 7.10L26.50 7.10L26.50 7.10Q26.84 6.13 27.17 5.16L27.17 5.16L27.17 5.16Q27.50 4.19 27.78 3.35L27.78 3.35L30.10 3.35L30.10 3.35Q29.78 4.27 29.36 5.45L29.36 5.45L29.36 5.45Q28.94 6.62 28.43 7.91L28.43 7.91L28.43 7.91Q27.93 9.20 27.37 10.51L27.37 10.51L27.37 10.51Q26.81 11.83 26.24 13.05L26.24 13.05ZM31.36 13.05L31.36 3.35L33.54 3.35L33.54 13.05L31.36 13.05ZM37.97 5.14L37.97 11.27L37.97 11.27Q38.12 11.28 38.33 11.29L38.33 11.29L38.33 11.29Q38.53 11.30 38.81 11.30L38.81 11.30L38.81 11.30Q40.45 11.30 41.24 10.47L41.24 10.47L41.24 10.47Q42.03 9.65 42.03 8.19L42.03 8.19L42.03 8.19Q42.03 6.66 41.27 5.88L41.27 5.88L41.27 5.88Q40.52 5.10 38.88 5.10L38.88 5.10L38.88 5.10Q38.65 5.10 38.42 5.10L38.42 5.10L38.42 5.10Q38.18 5.11 37.97 5.14L37.97 5.14ZM44.28 8.19L44.28 8.19L44.28 8.19Q44.28 9.45 43.89 10.39L43.89 10.39L43.89 10.39Q43.50 11.33 42.78 11.94L42.78 11.94L42.78 11.94Q42.06 12.56 41.02 12.87L41.02 12.87L41.02 12.87Q39.98 13.17 38.70 13.17L38.70 13.17L38.70 13.17Q38.11 13.17 37.32 13.13L37.32 13.13L37.32 13.13Q36.54 13.08 35.78 12.92L35.78 12.92L35.78 3.47L35.78 3.47Q36.54 3.33 37.36 3.28L37.36 3.28L37.36 3.28Q38.18 3.23 38.77 3.23L38.77 3.23L38.77 3.23Q40.01 3.23 41.03 3.51L41.03 3.51L41.03 3.51Q42.04 3.79 42.77 4.40L42.77 4.40L42.77 4.40Q43.50 5.00 43.89 5.94L43.89 5.94L43.89 5.94Q44.28 6.87 44.28 8.19ZM45.33 9.81L45.33 7.92L49.39 7.92L49.39 9.81L45.33 9.81ZM51.35 6.97L50.72 5.36L50.72 5.36Q51.13 5.19 51.57 4.98L51.57 4.98L51.57 4.98Q52.01 4.76 52.43 4.50L52.43 4.50L52.43 4.50Q52.85 4.24 53.23 3.96L53.23 3.96L53.23 3.96Q53.62 3.67 53.93 3.35L53.93 3.35L55.38 3.35L55.38 13.05L53.30 13.05L53.30 6.06L53.30 6.06Q52.88 6.34 52.36 6.57L52.36 6.57L52.36 6.57Q51.84 6.80 51.35 6.97L51.35 6.97ZM61.74 7.84L61.74 7.84L61.74 7.84Q62.06 7.84 62.41 7.78L62.41 7.78L62.41 7.78Q62.76 7.71 62.93 7.60L62.93 7.60L62.93 7.48L62.93 7.48Q62.93 7.42 62.94 7.36L62.94 7.36L62.94 7.36Q62.94 7.31 62.94 7.27L62.94 7.27L62.94 7.27Q62.93 6.76 62.86 6.32L62.86 6.32L62.86 6.32Q62.79 5.88 62.62 5.55L62.62 5.55L62.62 5.55Q62.45 5.22 62.17 5.03L62.17 5.03L62.17 5.03Q61.88 4.84 61.46 4.84L61.46 4.84L61.46 4.84Q61.12 4.84 60.87 4.98L60.87 4.98L60.87 4.98Q60.62 5.12 60.47 5.35L60.47 5.35L60.47 5.35Q60.31 5.57 60.23 5.84L60.23 5.84L60.23 5.84Q60.16 6.10 60.16 6.36L60.16 6.36L60.16 6.36Q60.16 7.11 60.53 7.48L60.53 7.48L60.53 7.48Q60.90 7.84 61.74 7.84ZM62.76 9.20L62.76 9.20L62.76 9.20Q62.47 9.34 62.11 9.40L62.11 9.40L62.11 9.40Q61.75 9.46 61.50 9.46L61.50 9.46L61.50 9.46Q60.59 9.46 59.95 9.25L59.95 9.25L59.95 9.25Q59.30 9.03 58.89 8.63L58.89 8.63L58.89 8.63Q58.48 8.23 58.28 7.67L58.28 7.67L58.28 7.67Q58.09 7.11 58.09 6.44L58.09 6.44L58.09 6.44Q58.09 5.88 58.27 5.29L58.27 5.29L58.27 5.29Q58.46 4.70 58.87 4.22L58.87 4.22L58.87 4.22Q59.28 3.74 59.90 3.42L59.90 3.42L59.90 3.42Q60.52 3.11 61.40 3.11L61.40 3.11L61.40 3.11Q63.21 3.11 64.13 4.22L64.13 4.22L64.13 4.22Q65.04 5.33 65.04 7.42L65.04 7.42L65.04 7.42Q65.04 8.79 64.69 9.84L64.69 9.84L64.69 9.84Q64.33 10.89 63.58 11.61L63.58 11.61L63.58 11.61Q62.83 12.32 61.67 12.69L61.67 12.69L61.67 12.69Q60.51 13.06 58.91 13.08L58.91 13.08L58.91 13.08Q58.90 12.63 58.87 12.21L58.87 12.21L58.87 12.21Q58.84 11.79 58.81 11.34L58.81 11.34L58.81 11.34Q59.61 11.33 60.26 11.22L60.26 11.22L60.26 11.22Q60.90 11.12 61.39 10.87L61.39 10.87L61.39 10.87Q61.88 10.63 62.22 10.22L62.22 10.22L62.22 10.22Q62.57 9.81 62.76 9.20ZM69.29 3.35L77.32 3.35L77.32 5.21L74.40 5.21L74.40 13.05L72.21 13.05L72.21 5.21L69.29 5.21L69.29 3.35ZM81.56 3.23L81.56 3.23L81.56 3.23Q83.75 3.23 84.91 4.01L84.91 4.01L84.91 4.01Q86.07 4.79 86.07 6.43L86.07 6.43L86.07 6.43Q86.07 7.45 85.60 8.09L85.60 8.09L85.60 8.09Q85.13 8.72 84.25 9.09L84.25 9.09L84.25 9.09Q84.55 9.45 84.87 9.92L84.87 9.92L84.87 9.92Q85.19 10.39 85.51 10.90L85.51 10.90L85.51 10.90Q85.82 11.41 86.11 11.96L86.11 11.96L86.11 11.96Q86.41 12.52 86.66 13.05L86.66 13.05L84.21 13.05L84.21 13.05Q83.94 12.57 83.67 12.08L83.67 12.08L83.67 12.08Q83.40 11.59 83.11 11.13L83.11 11.13L83.11 11.13Q82.82 10.67 82.54 10.25L82.54 10.25L82.54 10.25Q82.26 9.84 81.98 9.51L81.98 9.51L80.91 9.51L80.91 13.05L78.72 13.05L78.72 3.49L78.72 3.49Q79.44 3.35 80.20 3.29L80.20 3.29L80.20 3.29Q80.96 3.23 81.56 3.23ZM81.69 5.10L81.69 5.10L81.69 5.10Q81.45 5.10 81.26 5.11L81.26 5.11L81.26 5.11Q81.07 5.12 80.91 5.14L80.91 5.14L80.91 7.77L81.52 7.77L81.52 7.77Q82.75 7.77 83.29 7.46L83.29 7.46L83.29 7.46Q83.82 7.15 83.82 6.41L83.82 6.41L83.82 6.41Q83.82 5.70 83.28 5.40L83.28 5.40L83.28 5.40Q82.74 5.10 81.69 5.10ZM96.89 13.05L94.56 13.05L94.56 13.05Q94.40 12.54 94.21 12.01L94.21 12.01L94.21 12.01Q94.02 11.48 93.84 10.95L93.84 10.95L90.06 10.95L90.06 10.95Q89.88 11.48 89.69 12.01L89.69 12.01L89.69 12.01Q89.50 12.54 89.35 13.05L89.35 13.05L87.08 13.05L87.08 13.05Q87.63 11.48 88.12 10.15L88.12 10.15L88.12 10.15Q88.61 8.82 89.08 7.64L89.08 7.64L89.08 7.64Q89.54 6.47 90.00 5.41L90.00 5.41L90.00 5.41Q90.45 4.35 90.94 3.35L90.94 3.35L93.03 3.35L93.03 3.35Q93.51 4.35 93.97 5.41L93.97 5.41L93.97 5.41Q94.43 6.47 94.90 7.64L94.90 7.64L94.90 7.64Q95.37 8.82 95.86 10.15L95.86 10.15L95.86 10.15Q96.35 11.48 96.89 13.05L96.89 13.05ZM91.94 5.54L91.94 5.54L91.94 5.54Q91.87 5.75 91.73 6.12L91.73 6.12L91.73 6.12Q91.59 6.48 91.41 6.96L91.41 6.96L91.41 6.96Q91.22 7.43 91.01 8.01L91.01 8.01L91.01 8.01Q90.79 8.58 90.57 9.21L90.57 9.21L93.32 9.21L93.32 9.21Q93.10 8.58 92.89 8.01L92.89 8.01L92.89 8.01Q92.68 7.43 92.49 6.96L92.49 6.96L92.49 6.96Q92.30 6.48 92.16 6.12L92.16 6.12L92.16 6.12Q92.02 5.75 91.94 5.54ZM102.58 13.24L102.58 13.24L102.58 13.24Q100.21 13.24 98.97 11.93L98.97 11.93L98.97 11.93Q97.73 10.61 97.73 8.19L97.73 8.19L97.73 8.19Q97.73 6.99 98.11 6.04L98.11 6.04L98.11 6.04Q98.49 5.10 99.15 4.45L99.15 4.45L99.15 4.45Q99.81 3.79 100.72 3.46L100.72 3.46L100.72 3.46Q101.63 3.12 102.69 3.12L102.69 3.12L102.69 3.12Q103.31 3.12 103.81 3.21L103.81 3.21L103.81 3.21Q104.31 3.30 104.69 3.42L104.69 3.42L104.69 3.42Q105.07 3.54 105.32 3.67L105.32 3.67L105.32 3.67Q105.57 3.79 105.69 3.86L105.69 3.86L105.06 5.63L105.06 5.63Q104.61 5.39 104.01 5.22L104.01 5.22L104.01 5.22Q103.42 5.05 102.66 5.05L102.66 5.05L102.66 5.05Q102.16 5.05 101.67 5.22L101.67 5.22L101.67 5.22Q101.19 5.39 100.82 5.76L100.82 5.76L100.82 5.76Q100.45 6.13 100.23 6.72L100.23 6.72L100.23 6.72Q100.00 7.31 100.00 8.15L100.00 8.15L100.00 8.15Q100.00 8.82 100.15 9.40L100.15 9.40L100.15 9.40Q100.30 9.98 100.62 10.40L100.62 10.40L100.62 10.40Q100.95 10.82 101.49 11.07L101.49 11.07L101.49 11.07Q102.02 11.31 102.77 11.31L102.77 11.31L102.77 11.31Q103.25 11.31 103.63 11.26L103.63 11.26L103.63 11.26Q104.01 11.20 104.30 11.12L104.30 11.12L104.30 11.12Q104.59 11.05 104.82 10.95L104.82 10.95L104.82 10.95Q105.04 10.85 105.22 10.77L105.22 10.77L105.83 12.52L105.83 12.52Q105.36 12.80 104.52 13.02L104.52 13.02L104.52 13.02Q103.68 13.24 102.58 13.24ZM115.54 13.05L112.95 13.05L112.95 13.05Q112.66 12.57 112.26 12.02L112.26 12.02L112.26 12.02Q111.86 11.47 111.39 10.91L111.39 10.91L111.39 10.91Q110.92 10.36 110.42 9.85L110.42 9.85L110.42 9.85Q109.91 9.34 109.41 8.95L109.41 8.95L109.41 13.05L107.23 13.05L107.23 3.35L109.41 3.35L109.41 7.01L109.41 7.01Q110.26 6.12 111.13 5.14L111.13 5.14L111.13 5.14Q111.99 4.17 112.73 3.35L112.73 3.35L115.32 3.35L115.32 3.35Q114.32 4.52 113.32 5.61L113.32 5.61L113.32 5.61Q112.32 6.71 111.22 7.81L111.22 7.81L111.22 7.81Q112.38 8.78 113.46 10.11L113.46 10.11L113.46 10.11Q114.55 11.44 115.54 13.05L115.54 13.05ZM123.68 13.05L116.80 13.05L116.80 3.35L123.35 3.35L123.35 5.18L118.99 5.18L118.99 7.08L122.86 7.08L122.86 8.88L118.99 8.88L118.99 11.21L123.68 11.21L123.68 13.05ZM128.13 3.23L128.13 3.23L128.13 3.23Q130.31 3.23 131.47 4.01L131.47 4.01L131.47 4.01Q132.64 4.79 132.64 6.43L132.64 6.43L132.64 6.43Q132.64 7.45 132.17 8.09L132.17 8.09L132.17 8.09Q131.70 8.72 130.82 9.09L130.82 9.09L130.82 9.09Q131.11 9.45 131.43 9.92L131.43 9.92L131.43 9.92Q131.75 10.39 132.07 10.90L132.07 10.90L132.07 10.90Q132.38 11.41 132.68 11.96L132.68 11.96L132.68 11.96Q132.97 12.52 133.22 13.05L133.22 13.05L130.77 13.05L130.77 13.05Q130.51 12.57 130.23 12.08L130.23 12.08L130.23 12.08Q129.96 11.59 129.67 11.13L129.67 11.13L129.67 11.13Q129.39 10.67 129.11 10.25L129.11 10.25L129.11 10.25Q128.83 9.84 128.55 9.51L128.55 9.51L127.47 9.51L127.47 13.05L125.29 13.05L125.29 3.49L125.29 3.49Q126.00 3.35 126.76 3.29L126.76 3.29L126.76 3.29Q127.53 3.23 128.13 3.23ZM128.25 5.10L128.25 5.10L128.25 5.10Q128.02 5.10 127.83 5.11L127.83 5.11L127.83 5.11Q127.64 5.12 127.47 5.14L127.47 5.14L127.47 7.77L128.09 7.77L128.09 7.77Q129.32 7.77 129.85 7.46L129.85 7.46L129.85 7.46Q130.38 7.15 130.38 6.41L130.38 6.41L130.38 6.41Q130.38 5.70 129.84 5.40L129.84 5.40L129.84 5.40Q129.30 5.10 128.25 5.10Z"></path></g><defs data-v-fde0c5aa=""><linearGradient data-v-fde0c5aa="" gradientTransform="rotate(25)" id="c823a501-378c-4dcd-8719-61a46d1a1526" x1="0%" y1="0%" x2="100%" y2="0%"><stop data-v-fde0c5aa="" offset="0%" stop-color="#0076DD" stop-opacity="1"></stop><stop data-v-fde0c5aa="" offset="100%" stop-color="#00CDE9" stop-opacity="1"></stop></linearGradient></defs><g data-v-fde0c5aa="" id="715121d9-26a2-484f-ac1f-e876b5f3cbef" stroke="none" fill="url(#c823a501-378c-4dcd-8719-61a46d1a1526)" transform="matrix(0.08280562775739389,0,0,0.08280562775739389,128.8013423346168,109.86300674684976)"><path d="M142.86 75.43A22.88 22.88 0 0 0 120 98.29c1.26 30.32 44.46 30.31 45.71 0a22.88 22.88 0 0 0-22.85-22.86zm0 29.71a6.86 6.86 0 0 1-6.86-6.85c.32-9.08 13.39-9.08 13.71 0a6.85 6.85 0 0 1-6.85 6.85zm-5 19.81a27.84 27.84 0 0 0-27.8 27.81c1.52 36.89 54.09 36.88 55.61 0A27.84 27.84 0 0 0 137.9 125zm0 39.62a11.82 11.82 0 0 1-11.8-11.81c.64-15.67 23-15.66 23.61 0a11.82 11.82 0 0 1-11.77 11.81zm-44.53-59.43a17.93 17.93 0 0 0-17.9 17.91c1 23.75 34.83 23.74 35.81 0a17.93 17.93 0 0 0-17.91-17.91zm0 19.81a1.91 1.91 0 0 1 0-3.81 1.91 1.91 0 0 1 0 3.86zm9.91-31.62c.2-6.54 9.7-6.54 9.9 0-.2 6.55-9.7 6.55-9.9 0zm-4.95 64.38c-.21 6.55-9.71 6.55-9.91 0 .2-6.54 9.7-6.54 9.91 0zM172.57 133c-6.54-.2-6.54-9.7 0-9.9 6.55.15 6.55 9.65 0 9.9zm318.19 152.24c-8.35-8.62-23.51-6.17-28.67 4.71a18.79 18.79 0 0 1-11.56 9.61L438.78 303a119.32 119.32 0 0 0-22.72-54.8l10.68-5.95a18.92 18.92 0 0 1 15-1.41 17.88 17.88 0 0 0 18.3-29.62l-31.26-31.27c-6.66-6.93-18.66-6.93-25.32 0a17.83 17.83 0 0 0-4.28 18.36 18.8 18.8 0 0 1-1.37 15L391.93 224A119.39 119.39 0 0 0 337 201.22l3.4-11.75a18.8 18.8 0 0 1 9.66-11.58 17.77 17.77 0 0 0 9.9-16c.2-9.61-8.28-18.09-17.89-17.89h-44.18a17.89 17.89 0 0 0-8 33.88 18.8 18.8 0 0 1 9.65 11.64l3.33 11.71a119.32 119.32 0 0 0-54.8 22.77l-5.92-10.75a18.86 18.86 0 0 1-1.36-15c5.08-15-10.82-28.78-25-21.64a14 14 0 0 0-13.61-2.38 8.59 8.59 0 0 1-6.64-.68l-3.66-2a77.05 77.05 0 0 0 12.06-29c2.12.63 5.43 1.25 7.11 2.79a8.35 8.35 0 0 1 2.19 2.78 14.13 14.13 0 0 0 26.76-6.43v-27.38a14.13 14.13 0 0 0-26.78-6.31 8.5 8.5 0 0 1-5.26 4.38l-4 1.16a76.81 76.81 0 0 0-12-29l3.65-2a8.62 8.62 0 0 1 6.85-.64 14 14 0 0 0 4.46.72c12.49.07 18.87-15.33 10-24.11l-19.4-19.39a14.05 14.05 0 0 0-10-4.13c-9.5-.21-16.69 9.91-13.32 18.81a8.59 8.59 0 0 1-.68 6.64l-2 3.66a77 77 0 0 0-29.1-12.1l1.16-4a8.54 8.54 0 0 1 4.42-5.25A14.13 14.13 0 0 0 141.69 16h-27.38A14.13 14.13 0 0 0 108 42.76a8.21 8.21 0 0 1 2.77 2.2c1.5 1.62 2.15 5 2.77 7.08a77.05 77.05 0 0 0-29 12.06l-2-3.65a8.56 8.56 0 0 1-.69-6.64c3.37-8.9-3.81-19-13.32-18.82a14.05 14.05 0 0 0-10 4.13L39.12 58.48c-8.86 8.78-2.49 24.19 10 24.11a14.09 14.09 0 0 0 4.47-.72 8.6 8.6 0 0 1 6.85.64l3.64 2a76.81 76.81 0 0 0-12 29.05l-4-1.16a8.54 8.54 0 0 1-5.33-4.4A14.13 14.13 0 0 0 16 114.31v27.38A14.13 14.13 0 0 0 42.76 148a8.21 8.21 0 0 1 2.2-2.77c1.62-1.5 5-2.15 7.08-2.77a77.05 77.05 0 0 0 12.06 29l-3.65 2a8.55 8.55 0 0 1-6.64.69c-8.9-3.38-19 3.81-18.82 13.32a14.05 14.05 0 0 0 4.13 10l19.36 19.36c8.78 8.86 24.19 2.49 24.11-10 .16-2.49-1.13-4.7-1.16-7.16-.16-2.62 1.91-5.59 3.1-7.8a77.06 77.06 0 0 0 29 12c-.63 2.12-1.25 5.43-2.79 7.11a8.35 8.35 0 0 1-2.78 2.19 14.13 14.13 0 0 0 6.35 26.83h27.38a14.13 14.13 0 0 0 6.31-26.78 8.5 8.5 0 0 1-4.38-5.26l-1.16-4a76.81 76.81 0 0 0 29.05-12c1.18 2.23 3.28 5.16 3.1 7.8 0 2.45-1.32 4.66-1.16 7.16a14 14 0 0 0 3.18 8.94c-7.08 14.05 6.46 30 21.64 25a18.9 18.9 0 0 1 15 1.41l10.68 5.95A119.32 119.32 0 0 0 201.22 303l-11.75-3.4a18.8 18.8 0 0 1-11.58-9.66 17.77 17.77 0 0 0-16-9.9c-9.61-.2-18.09 8.28-17.89 17.89v44.22a17.89 17.89 0 0 0 33.88 8 18.8 18.8 0 0 1 11.64-9.65l11.71-3.33A119.32 119.32 0 0 0 224 391.93l-10.75 5.92a18.86 18.86 0 0 1-15 1.36 17.8 17.8 0 0 0-18.32 4.3c-6.92 6.65-6.93 18.66 0 25.31l31.26 31.27a17.89 17.89 0 0 0 29.62-18.32 18.76 18.76 0 0 1 1.41-15l5.95-10.68a119.41 119.41 0 0 0 54.7 22.71l-3.34 11.72a18.79 18.79 0 0 1-9.61 11.62 17.88 17.88 0 0 0 8 33.89h44.22c9.6.2 18.09-8.28 17.89-17.89a17.78 17.78 0 0 0-9.95-16 18.79 18.79 0 0 1-9.61-11.56l-3.47-11.8a119.32 119.32 0 0 0 54.8-22.72l6 10.68a18.75 18.75 0 0 1 1.41 15 17.88 17.88 0 0 0 29.62 18.3l31.27-31.26c6.93-6.66 6.93-18.66 0-25.32a17.83 17.83 0 0 0-18.36-4.28 18.8 18.8 0 0 1-15-1.37L416 391.93a119.32 119.32 0 0 0 22.78-54.79l11.72 3.34a18.35 18.35 0 0 1 6.82 3.59 19 19 0 0 1 4.8 6 17.88 17.88 0 0 0 33.89-8v-44.18a17.78 17.78 0 0 0-5.25-12.65zM212.4 127.8a24.59 24.59 0 0 0 11.6-7.37v15.14a24.81 24.81 0 0 0-12.37-7.57zm-168.7.41a24.57 24.57 0 0 0-11.7 7.36v-15.13A24.8 24.8 0 0 0 44.37 128zm380.1 198.21a104.15 104.15 0 0 1-97.8 97.4 100 100 0 0 1-12.12 0 104.15 104.15 0 0 1-97.67-97.67 100 100 0 0 1 0-12.12c3-56.61 52.53-101.35 109.8-97.84A104.14 104.14 0 0 1 423.82 314a100 100 0 0 1 0 12.12c-.01.11-.02.21-.02.3zM411.87 221a35 35 0 0 0 2.51-27.83 1.89 1.89 0 0 1 3.12-1.93l31.27 31.28a1.88 1.88 0 0 1 0 2.67 1.91 1.91 0 0 1-1.92.45 34.82 34.82 0 0 0-27.85 2.59l-13.56 7.56-1.09-1.1zm-96.95-35.83a34.75 34.75 0 0 0-17.92-21.6 1.89 1.89 0 0 1 .86-3.57h44.22a1.91 1.91 0 0 1 1.89 1.89 1.93 1.93 0 0 1-1.11 1.72c-16.05 8.32-17.58 20.81-22.16 36.4h-1.59zm-114.38 5.4l-10 10a24.54 24.54 0 0 0-3.42-13.41 24.76 24.76 0 0 0 13.42 3.39zm-69-1.33h-.1c-36.19 2.29-67-28.5-64.7-64.69 6.9-76.77 115.58-76.73 122.46 0 2.07 33.72-24.28 62.87-57.63 64.67zm56-121a24.67 24.67 0 0 0 3-13.4l10.71 10.71a24.88 24.88 0 0 0-14.1 3.4zM135.56 32A24.8 24.8 0 0 0 128 44.37 24.78 24.78 0 0 0 120.43 32zM56.28 65.43h-1.52l10.71-10.66a24.82 24.82 0 0 0 3.39 14.11 24.84 24.84 0 0 0-12.58-3.45zm12.25 122.34a24.61 24.61 0 0 0-3 13.47l-10.76-10.71a24.82 24.82 0 0 0 14.11-3.39zm51.9 36.23a24.81 24.81 0 0 0 7.57-12.37 24.75 24.75 0 0 0 7.57 12.37zM221 228.23a34.74 34.74 0 0 0-27.88-2.61 1.93 1.93 0 0 1-1.93-.44 1.9 1.9 0 0 1 0-2.68l3.42-3.42c1.48-.19 20.64-20.19 22.24-21.56a14.79 14.79 0 0 0 2.2-2.87l3.42-3.42a1.89 1.89 0 0 1 3.1 2 34.91 34.91 0 0 0 2.56 27.77l7.56 13.71-1.09 1.1zm-35.89 96.85A34.75 34.75 0 0 0 163.57 343a1.89 1.89 0 0 1-3.57-.86v-44.25a1.91 1.91 0 0 1 1.89-1.89 1.93 1.93 0 0 1 1.72 1.11c8.32 16.05 20.81 17.58 36.4 22.16v1.59zM228.23 419a34.8 34.8 0 0 0-2.61 27.88 1.89 1.89 0 0 1-3.12 1.94l-31.27-31.32a1.81 1.81 0 0 1-.55-1.33 1.85 1.85 0 0 1 .54-1.33 1.94 1.94 0 0 1 2-.44c17.24 5.47 27.2-2.29 41.47-10.09l1.1 1.09zm96.83 36A34.9 34.9 0 0 0 343 476.43a1.91 1.91 0 0 1 .48 3 1.82 1.82 0 0 1-1.33.56h-44.26a1.89 1.89 0 0 1-.83-3.58 34.76 34.76 0 0 0 17.86-21.56l4.22-14.85h1.59zm94-43.1a35 35 0 0 0 27.83 2.51 1.89 1.89 0 0 1 1.93 3.12l-31.32 31.24a1.88 1.88 0 0 1-3.12-1.92 34.82 34.82 0 0 0-2.61-27.85l-7.56-13.56 1.1-1.09zm61-69.76a1.89 1.89 0 0 1-3.58.83 34.81 34.81 0 0 0-21.56-17.86L440 320.86v-1.59c15.65-4.58 28.1-6.13 36.44-22.23a1.89 1.89 0 0 1 3.57.85zM344 240a32 32 0 0 0-32 32c1.76 42.45 62.25 42.44 64 0a32 32 0 0 0-32-32zm0 48a16 16 0 0 1-16-16c.88-21.23 31.12-21.22 32 0a16 16 0 0 1-16 16zm-8 32a40 40 0 0 0-40 40c2.2 53.07 77.81 53.05 80 0a40 40 0 0 0-40-40zm0 64a24 24 0 0 1-24-24c1.32-31.84 46.69-31.83 48 0a24 24 0 0 1-24 24zm-72-96a24 24 0 0 0-24 24c1.32 31.84 46.69 31.83 48 0a24 24 0 0 0-24-24zm0 32a8 8 0 0 1-8-8c.4-10.6 15.6-10.6 16 0a8 8 0 0 1-8 8zm32-56a8 8 0 0 1-8 8c-10.6-.39-10.6-15.61 0-16a8 8 0 0 1 8 8zm-24 104a8 8 0 0 1-8 8c-10.6-.39-10.6-15.61 0-16a8 8 0 0 1 8 8zm128-48a8 8 0 0 1-8 8c-10.6-.39-10.6-15.61 0-16a8 8 0 0 1 8 8z"></path></g><!----></svg>