<svg data-v-423bf9ae="" xmlns="http://www.w3.org/2000/svg" viewBox="0 0 401.4647791975435 163" class="iconAbove"><!----><!----><!----><g data-v-423bf9ae="" id="0d19c898-0465-430f-bd84-4523a8a60dca" fill="#ffffff" transform="matrix(5.633802514207732,0,0,5.633802514207732,-6.873242476657879,101.87323824357203)"><path d="M8.60 0.76L7.59 0.76L7.59 6.71C7.59 8.40 7.39 9.09 6.87 9.56C6.50 9.93 5.73 10.08 4.97 10.08C3.77 10.08 2.88 9.62 2.60 8.81C2.44 8.33 2.34 7.67 2.34 6.64L2.34 0.76L1.22 0.76L1.22 6.66C1.22 7.70 1.29 8.54 1.58 9.20C2.11 10.40 3.44 10.85 4.90 10.85C6.47 10.85 7.64 10.32 8.13 9.39C8.48 8.76 8.60 8.12 8.60 6.64ZM15.25 10.64L16.28 10.64L16.28 6.48C16.28 5.64 16.25 5.25 16.20 4.87C16.04 3.78 15.22 3.40 14.24 3.40C13.59 3.40 12.43 3.68 11.79 4.61C11.79 4.48 11.73 3.82 11.68 3.58L10.64 3.58C10.74 4.24 10.78 5.43 10.78 6.26L10.78 10.64L11.83 10.64L11.83 6.40C11.83 5.59 11.89 5.32 12.14 4.94C12.52 4.40 13.22 4.12 13.85 4.12C14.56 4.12 14.97 4.40 15.12 4.94C15.22 5.31 15.25 5.82 15.25 6.68ZM22.65 10.64L23.67 10.64C23.51 10.11 23.49 9.56 23.49 9.09L23.49 5.80C23.49 4.79 23.30 4.33 22.93 3.95C22.50 3.51 21.80 3.40 21.10 3.40C20.41 3.40 19.50 3.56 18.76 3.91L18.76 4.72C19.63 4.24 20.38 4.14 20.97 4.14C21.49 4.14 21.90 4.28 22.13 4.59C22.37 4.90 22.46 5.39 22.46 5.91L22.46 6.54C22.20 6.52 21.84 6.51 21.57 6.51C19.12 6.51 18.09 7.28 18.09 8.65C18.09 9.90 18.91 10.81 20.34 10.81C21.46 10.81 22.12 10.32 22.48 9.66C22.50 9.93 22.58 10.40 22.65 10.64ZM22.46 7.11L22.46 8.11C22.46 8.57 22.39 9.03 22.12 9.34C21.76 9.79 21.21 10.09 20.55 10.09C19.66 10.09 19.15 9.52 19.15 8.62C19.15 7.78 19.75 7.10 21.77 7.10C21.99 7.10 22.26 7.10 22.46 7.11ZM26.88 10.64L26.88 3.58L25.82 3.58L25.82 10.64ZM26.99 1.40C26.99 0.87 26.80 0.70 26.36 0.70C25.91 0.70 25.69 0.88 25.69 1.40C25.69 1.95 25.90 2.10 26.33 2.10C26.78 2.10 26.99 1.92 26.99 1.40ZM32.61 0.76L32.61 10.64L35.17 10.64C36.18 10.64 36.88 10.56 37.42 10.36C38.50 9.97 39.05 8.96 39.05 7.83C39.05 6.45 38.29 5.67 37.06 5.45C38.09 5.10 38.70 4.40 38.70 3.22C38.70 1.72 37.90 0.92 36.50 0.81C36.13 0.78 35.63 0.76 35.17 0.76ZM33.73 9.95L33.73 5.84L35.32 5.84C36.16 5.84 36.55 5.89 36.92 6.06C37.56 6.38 37.88 7.14 37.88 7.87C37.88 8.81 37.49 9.44 36.93 9.70C36.57 9.87 36.06 9.95 35.25 9.95ZM33.73 5.15L33.73 1.44L35.08 1.44C35.73 1.44 36.25 1.50 36.57 1.60C37.21 1.81 37.56 2.49 37.56 3.26C37.56 4.00 37.24 4.61 36.78 4.87C36.46 5.05 36.04 5.15 35.25 5.15ZM46.62 7.10C46.62 4.52 45.70 3.40 43.62 3.40C41.64 3.40 40.43 4.69 40.43 7.11C40.43 9.53 41.50 10.81 43.50 10.81C45.68 10.81 46.62 9.42 46.62 7.10ZM45.53 7.08C45.53 8.96 45.02 10.19 43.55 10.19C42.20 10.19 41.52 9.14 41.52 7.13C41.52 5.00 42.29 4.03 43.60 4.03C44.97 4.03 45.53 4.98 45.53 7.08ZM49.57 10.64L49.57 0.20L48.51 0.20L48.51 10.64ZM53.02 10.64L53.02 3.58L51.95 3.58L51.95 10.64ZM53.13 1.40C53.13 0.87 52.93 0.70 52.50 0.70C52.05 0.70 51.83 0.88 51.83 1.40C51.83 1.95 52.04 2.10 52.47 2.10C52.92 2.10 53.13 1.92 53.13 1.40ZM60.66 3.58L59.63 3.58C58.32 7.31 57.99 8.23 57.57 9.62C57.09 8.19 56.80 7.32 55.44 3.58L54.28 3.58L56.94 10.64L57.93 10.64ZM65.76 10.64L66.78 10.64C66.61 10.11 66.60 9.56 66.60 9.09L66.60 5.80C66.60 4.79 66.40 4.33 66.04 3.95C65.60 3.51 64.90 3.40 64.20 3.40C63.52 3.40 62.61 3.56 61.87 3.91L61.87 4.72C62.73 4.24 63.49 4.14 64.08 4.14C64.60 4.14 65.00 4.28 65.24 4.59C65.48 4.90 65.56 5.39 65.56 5.91L65.56 6.54C65.31 6.52 64.95 6.51 64.68 6.51C62.23 6.51 61.19 7.28 61.19 8.65C61.19 9.90 62.02 10.81 63.45 10.81C64.57 10.81 65.23 10.32 65.59 9.66C65.60 9.93 65.69 10.40 65.76 10.64ZM65.56 7.11L65.56 8.11C65.56 8.57 65.49 9.03 65.23 9.34C64.86 9.79 64.32 10.09 63.66 10.09C62.76 10.09 62.26 9.52 62.26 8.62C62.26 7.78 62.86 7.10 64.88 7.10C65.10 7.10 65.37 7.10 65.56 7.11ZM70 10.64L70 6.40C70 5.78 70.11 5.26 70.38 4.90C70.69 4.48 71.11 4.34 71.57 4.34C71.85 4.34 72.20 4.38 72.48 4.51L72.48 3.54C72.24 3.47 72.00 3.44 71.72 3.44C71.08 3.44 70.31 3.86 69.96 4.62C69.96 4.41 69.92 3.92 69.85 3.58L68.81 3.58C68.91 4.23 68.95 5.04 68.95 5.73L68.95 10.64Z"></path></g><!----><g data-v-423bf9ae="" id="6a23560b-9253-4db6-9d43-731460530895" transform="matrix(4.090909090909091,0,0,4.090909090909091,156,0)" stroke="none" fill="#FFD009"><path d="M0 5h6V1a1 1 0 0 0-1-1H1a1 1 0 0 0-1 1v4zM22 1a1 1 0 0 0-1-1h-4a1 1 0 0 0-1 1v4h6V1zM0 11c0 6.065 4.935 11 11 11s11-4.935 11-11V6h-6v5c0 2.757-2.243 5-5 5s-5-2.243-5-5V6H0v5z"></path></g><!----></svg>