<svg data-v-fde0c5aa="" xmlns="http://www.w3.org/2000/svg" viewBox="0 0 300 300" class="iconAbove"><!----><defs data-v-fde0c5aa=""><!----></defs><rect data-v-fde0c5aa="" fill="transparent" x="0" y="0" width="300px" height="300px" class="logo-background-square"></rect><defs data-v-fde0c5aa=""><!----></defs><g data-v-fde0c5aa="" id="c0589fc5-aa08-4d73-a5e6-9e57a323a424" fill="#000000" transform="matrix(2.9847319271985326,0,0,2.9847319271985326,15.493054818394837,162.34289870527135)"><path d="M8.76 3.78L8.76 13.02L7.38 13.02L3.51 6.83L2.53 5.01L2.52 5.01L2.58 6.50L2.58 13.02L1.51 13.02L1.51 3.78L2.90 3.78L6.75 9.94L7.74 11.79L7.76 11.79L7.70 10.30L7.70 3.78L8.76 3.78ZM17.96 13.02L16.98 10.46L12.80 10.46L11.82 13.02L10.64 13.02L14.24 3.78L15.57 3.78L19.15 13.02L17.96 13.02ZM13.20 9.41L16.58 9.41L15.33 6.13L14.90 4.84L14.87 4.84L14.46 6.09L13.20 9.41ZM23.88 3.64L23.88 3.64Q26.36 3.64 27.45 5.60L27.45 5.60L26.49 6.38L26.49 6.38Q26.07 5.46 25.49 5.07L25.49 5.07L25.49 5.07Q24.91 4.69 23.90 4.69L23.90 4.69L23.90 4.69Q22.83 4.69 22.23 5.13L22.23 5.13L22.23 5.13Q21.62 5.57 21.62 6.26L21.62 6.26L21.62 6.26Q21.62 6.71 21.85 7.00L21.85 7.00L21.85 7.00Q22.09 7.29 22.64 7.51L22.64 7.51L22.64 7.51Q23.20 7.73 24.18 7.90L24.18 7.90L24.18 7.90Q26.01 8.20 26.77 8.82L26.77 8.82L26.77 8.82Q27.54 9.44 27.54 10.53L27.54 10.53L27.54 10.53Q27.54 11.31 27.10 11.91L27.10 11.91L27.10 11.91Q26.66 12.50 25.84 12.83L25.84 12.83L25.84 12.83Q25.03 13.16 23.97 13.16L23.97 13.16L23.97 13.16Q22.57 13.16 21.58 12.61L21.58 12.61L21.58 12.61Q20.59 12.07 20.08 11.16L20.08 11.16L21.04 10.37L21.04 10.37Q21.42 11.20 22.16 11.65L22.16 11.65L22.16 11.65Q22.89 12.11 24.00 12.11L24.00 12.11L24.00 12.11Q25.09 12.11 25.73 11.71L25.73 11.71L25.73 11.71Q26.38 11.31 26.38 10.58L26.38 10.58L26.38 10.58Q26.38 9.97 25.82 9.60L25.82 9.60L25.82 9.60Q25.26 9.24 23.83 8.99L23.83 8.99L23.83 8.99Q21.98 8.67 21.21 8.06L21.21 8.06L21.21 8.06Q20.44 7.46 20.44 6.38L20.44 6.38L20.44 6.38Q20.44 5.64 20.86 5.01L20.86 5.01L20.86 5.01Q21.28 4.38 22.06 4.01L22.06 4.01L22.06 4.01Q22.85 3.64 23.88 3.64L23.88 3.64ZM35.94 13.02L34.96 10.46L30.77 10.46L29.79 13.02L28.62 13.02L32.21 3.78L33.54 3.78L37.13 13.02L35.94 13.02ZM31.18 9.41L34.55 9.41L33.31 6.13L32.87 4.84L32.84 4.84L32.44 6.09L31.18 9.41ZM46.48 3.78L46.48 3.78Q47.88 3.78 48.73 4.54L48.73 4.54L48.73 4.54Q49.59 5.31 49.59 6.59L49.59 6.59L49.59 6.59Q49.59 7.88 48.73 8.64L48.73 8.64L48.73 8.64Q47.88 9.41 46.48 9.41L46.48 9.41L44.34 9.41L44.34 13.02L43.22 13.02L43.22 3.78L46.48 3.78ZM46.31 8.36L46.31 8.36Q47.39 8.36 47.90 7.92L47.90 7.92L47.90 7.92Q48.41 7.48 48.41 6.59L48.41 6.59L48.41 6.59Q48.41 5.71 47.90 5.27L47.90 5.27L47.90 5.27Q47.39 4.83 46.31 4.83L46.31 4.83L44.34 4.83L44.34 8.36L46.31 8.36ZM52.88 3.78L52.88 13.02L51.76 13.02L51.76 3.78L52.88 3.78ZM63.35 10.65L63.35 10.65Q62.92 11.83 61.92 12.49L61.92 12.49L61.92 12.49Q60.93 13.16 59.63 13.16L59.63 13.16L59.63 13.16Q58.32 13.16 57.36 12.58L57.36 12.58L57.36 12.58Q56.39 12.00 55.87 10.93L55.87 10.93L55.87 10.93Q55.34 9.86 55.34 8.40L55.34 8.40L55.34 8.40Q55.34 6.96 55.87 5.88L55.87 5.88L55.87 5.88Q56.39 4.80 57.36 4.22L57.36 4.22L57.36 4.22Q58.32 3.64 59.60 3.64L59.60 3.64L59.60 3.64Q60.93 3.64 61.83 4.19L61.83 4.19L61.83 4.19Q62.73 4.73 63.18 5.80L63.18 5.80L62.08 6.31L62.08 6.31Q61.77 5.50 61.18 5.10L61.18 5.10L61.18 5.10Q60.59 4.69 59.68 4.69L59.68 4.69L59.68 4.69Q58.73 4.69 58.02 5.13L58.02 5.13L58.02 5.13Q57.30 5.57 56.91 6.41L56.91 6.41L56.91 6.41Q56.52 7.25 56.52 8.40L56.52 8.40L56.52 8.40Q56.52 10.14 57.35 11.12L57.35 11.12L57.35 11.12Q58.18 12.11 59.63 12.11L59.63 12.11L59.63 12.11Q60.56 12.11 61.25 11.63L61.25 11.63L61.25 11.63Q61.94 11.16 62.23 10.23L62.23 10.23L63.35 10.65ZM75.89 13.02L74.91 10.46L70.73 10.46L69.75 13.02L68.57 13.02L72.17 3.78L73.50 3.78L77.08 13.02L75.89 13.02ZM71.13 9.41L74.51 9.41L73.26 6.13L72.83 4.84L72.80 4.84L72.39 6.09L71.13 9.41ZM82.22 3.78L82.22 3.78Q83.62 3.78 84.48 4.54L84.48 4.54L84.48 4.54Q85.33 5.31 85.33 6.59L85.33 6.59L85.33 6.59Q85.33 7.88 84.48 8.64L84.48 8.64L84.48 8.64Q83.62 9.41 82.22 9.41L82.22 9.41L80.08 9.41L80.08 13.02L78.96 13.02L78.96 3.78L82.22 3.78ZM82.05 8.36L82.05 8.36Q83.13 8.36 83.64 7.92L83.64 7.92L83.64 7.92Q84.15 7.48 84.15 6.59L84.15 6.59L84.15 6.59Q84.15 5.71 83.64 5.27L83.64 5.27L83.64 5.27Q83.13 4.83 82.05 4.83L82.05 4.83L80.08 4.83L80.08 8.36L82.05 8.36ZM88.62 3.78L88.62 13.02L87.50 13.02L87.50 3.78L88.62 3.78Z"></path></g><defs data-v-fde0c5aa=""><linearGradient data-v-fde0c5aa="" gradientTransform="rotate(25)" id="6a9ba945-37ab-4f1a-9456-0c0ac5c78268" x1="0%" y1="0%" x2="100%" y2="0%"><stop data-v-fde0c5aa="" offset="0%" stop-color="#3616AC" stop-opacity="1"></stop><stop data-v-fde0c5aa="" offset="100%" stop-color="#E09BED" stop-opacity="1"></stop></linearGradient></defs><g data-v-fde0c5aa="" id="1769992c-190b-435e-9224-60847225379a" stroke="none" fill="url(#6a9ba945-37ab-4f1a-9456-0c0ac5c78268)" transform="matrix(0.7671343019328466,0,0,0.7671343019328466,111.21476408730969,88.86324096713196)"><path d="M11.941 80.183v5.297a1 1 0 0 0 1 1H40.97a1 1 0 0 0 1-1v-5.297c0-5.589-3.076-10.466-7.619-13.05a7.503 7.503 0 0 0-.107-2.808l10.521-10.521a.999.999 0 0 0 0-1.414L42.9 50.525l3.307-3.307.333.333a22.67 22.67 0 0 0 16.135 6.684c.545 0 1.082-.041 1.62-.079.258 3.216 1.619 6.214 3.902 8.496l.041.041-1.236 1.236-.774-.774a.999.999 0 0 0-1.414 0l-6.378 6.378a4.698 4.698 0 0 0-3.159 1.371c-1 1-1.484 2.398-1.358 3.788-2.61 1.595-4.362 4.463-4.362 7.739v3.052a1 1 0 0 0 1 1h16.148a1 1 0 0 0 1-1v-3.052c0-3.276-1.752-6.144-4.362-7.739a4.768 4.768 0 0 0-.054-1.258l5.901-5.901a.999.999 0 0 0 0-1.414l-.774-.774 1.236-1.236.041.041c2.646 2.646 6.12 3.968 9.595 3.968s6.949-1.322 9.595-3.968a.999.999 0 0 0 0-1.414l-8.929-8.929 1.948-1.947c.445.225.933.358 1.446.358.859 0 1.668-.335 2.275-.942s.942-1.416.942-2.275-.335-1.668-.942-2.275c-1.215-1.215-3.336-1.215-4.551 0a3.198 3.198 0 0 0-.942 2.275c0 .513.132 1.001.358 1.446l-1.948 1.947-2.504-2.504a23.097 23.097 0 0 0 2.773-2.336.999.999 0 0 0 0-1.414l-15.76-15.76 4.129-4.129c.012-.012.015-.027.026-.039a4.812 4.812 0 0 0 2.656.794 4.817 4.817 0 0 0 3.429-1.421 4.817 4.817 0 0 0 1.421-3.429 4.817 4.817 0 0 0-1.421-3.43 4.817 4.817 0 0 0-3.429-1.421c-1.296 0-2.514.505-3.43 1.421s-1.421 2.134-1.421 3.43c0 .958.28 1.872.794 2.655-.012.011-.028.014-.039.026l-4.129 4.129-16.278-16.282a1.03 1.03 0 0 0-1.414 0c-8.896 8.896-8.896 23.373 0 32.27l.849.849-3.307 3.307-1.864-1.864a.999.999 0 0 0-1.414 0L26.953 58.498a7.452 7.452 0 0 0-5.3 2.196c-1.689 1.689-2.45 4.096-2.093 6.438-4.542 2.585-7.619 7.461-7.619 13.051zm55.902-56.017a2.832 2.832 0 0 1-.835-2.015c0-.762.297-1.478.835-2.016s1.254-.835 2.016-.835c.761 0 1.477.297 2.015.835s.835 1.254.835 2.016c0 .761-.297 1.477-.835 2.015-1.077 1.076-2.955 1.075-4.031 0zm14.642 25.69a1.22 1.22 0 0 1 .861-2.079 1.216 1.216 0 0 1 .861 2.079 1.219 1.219 0 0 1-1.722 0zM58.63 75.354c3.9 0 7.074 3.173 7.074 7.073v2.052H51.555v-2.052c0-3.9 3.174-7.073 7.075-7.073zm-1.941-3.04a2.747 2.747 0 0 1 3.881 0c.396.396.635.905.734 1.443a9.059 9.059 0 0 0-5.35 0c.1-.538.339-1.046.735-1.443zm8.83-7.041l1.549 1.549-4.623 4.623a4.664 4.664 0 0 0-.461-.545 4.712 4.712 0 0 0-1.228-.865l4.763-4.762zm.76-11.349a22.506 22.506 0 0 0 8.051-2.916l12.4 12.4c-4.542 3.823-11.352 3.595-15.624-.677l-1.496-1.496a11.508 11.508 0 0 1-3.331-7.311zm-18.326-7.789l-2.596-2.596c-7.88-7.88-8.11-20.558-.69-28.718L76.67 46.825a20.667 20.667 0 0 1-13.996 5.407 20.686 20.686 0 0 1-14.721-6.097zM33.461 62.278a7.467 7.467 0 0 0-1.204-1.584 7.461 7.461 0 0 0-2.881-1.79l9.539-9.538 3.729 3.729-9.183 9.183zm-1.03 3.94a14.91 14.91 0 0 0-5.476-1.049c-1.934 0-3.777.38-5.476 1.049a5.502 5.502 0 0 1 1.588-4.109 5.462 5.462 0 0 1 3.888-1.61c1.469 0 2.85.571 3.888 1.61a5.497 5.497 0 0 1 1.588 4.109zm-18.49 13.965c0-7.176 5.838-13.014 13.014-13.014 7.177 0 13.015 5.838 13.015 13.014v4.297H13.941v-4.297z"></path></g><!----></svg>