<svg data-v-fde0c5aa="" xmlns="http://www.w3.org/2000/svg" viewBox="0 0 300 300" class="iconAbove"><!----><defs data-v-fde0c5aa=""><!----></defs><rect data-v-fde0c5aa="" fill="white" x="0" y="0" width="300px" height="300px" class="logo-background-square"></rect><defs data-v-fde0c5aa=""><!----></defs><g data-v-fde0c5aa="" id="a46fb3d9-e860-4ace-a5ec-30f1972aca0c" fill="#black" transform="matrix(3.4094372726518745,0,0,3.4094372726518745,17.720504624298016,176.72907271025005)"><path d="M6.37 0.71L6.37 0.71C5.39 0.38 4.70 0.27 3.86 0.31C0.98 0.45-0.25 3.99 1.78 5.77C3.08 6.90 4.47 6.79 4.52 7.45C4.61 8.15 2.72 8.01 1.64 7.22C1.15 6.87 0.60 7.63 1.09 7.98C2.02 8.65 3.15 8.88 4.06 8.82C4.82 8.76 5.50 8.19 5.46 7.41C5.36 5.92 3.63 6.16 2.41 5.07C1.40 4.20 1.60 2.73 2.35 1.93C3.28 0.91 4.79 1.15 6.05 1.60C6.64 1.81 6.94 0.91 6.37 0.71ZM0.91 9.97L0.91 9.97C1.46 10.26 2.00 10.44 2.48 10.54C5.10 11.17 7.36 9.97 7.36 7.41C7.36 4.80 4.30 4.24 3.78 3.85C3.32 3.49 3.68 2.62 5.80 3.47C6.37 3.71 6.71 2.84 6.16 2.62C2.67 1.20 2.09 3.68 3.21 4.56C3.92 5.14 6.44 5.49 6.44 7.41C6.44 10.00 3.51 10.29 1.36 9.14C0.81 8.86 0.38 9.69 0.91 9.97ZM3.98 7.90L3.98 7.90L3.98 7.90L3.98 7.90ZM19.19 3.88L19.19 3.88C18.84 2.77 18.14 1.83 17.23 1.16C16.32 0.52 15.23 0.14 14.03 0.14C6.93 0.14 6.93 10.82 14.03 10.82C15.23 10.82 16.32 10.43 17.23 9.79C18.14 9.13 18.84 8.18 19.19 7.08C19.26 6.83 19.14 6.55 18.89 6.48C18.63 6.41 18.35 6.54 18.28 6.79C17.99 7.70 17.43 8.47 16.66 9.02C15.93 9.55 15.02 9.86 14.03 9.86C8.19 9.86 8.19 1.09 14.03 1.09C15.02 1.09 15.93 1.41 16.66 1.93C17.43 2.49 17.99 3.26 18.28 4.16C18.35 4.41 18.63 4.55 18.89 4.47C19.14 4.40 19.26 4.13 19.19 3.88ZM11.14 7.17L11.14 7.17C11.44 7.69 11.86 8.12 12.36 8.43C12.87 8.71 13.44 8.88 14.03 8.88C14.97 8.88 15.81 8.50 16.42 7.87C17.01 7.25 17.39 6.41 17.39 5.47C17.39 4.54 17.01 3.70 16.42 3.08C15.81 2.46 14.97 2.09 14.03 2.09C13.44 2.09 12.87 2.24 12.36 2.53C11.86 2.83 11.44 3.26 11.14 3.78C11.00 4.02 11.09 4.31 11.31 4.44C11.55 4.56 11.83 4.48 11.96 4.24C12.18 3.88 12.49 3.57 12.85 3.36C13.20 3.15 13.59 3.04 14.03 3.04C14.70 3.04 15.30 3.32 15.72 3.75C16.17 4.19 16.44 4.80 16.44 5.47C16.44 6.16 16.17 6.78 15.72 7.21C15.30 7.66 14.70 7.92 14.03 7.92C13.59 7.92 13.19 7.80 12.85 7.59C12.49 7.39 12.18 7.07 11.96 6.71C11.83 6.47 11.55 6.40 11.31 6.52C11.09 6.66 11.00 6.93 11.14 7.17ZM27.02 9.70L27.02 9.70L22.04 9.70L22.04 0.81C22.04 0.56 21.83 0.35 21.57 0.35C21.31 0.35 21.10 0.56 21.10 0.81L21.10 10.18C21.10 10.43 21.31 10.64 21.57 10.64L27.02 10.64C27.29 10.64 27.48 10.43 27.48 10.18C27.48 9.91 27.29 9.70 27.02 9.70ZM22.97 0.81L22.97 0.81L22.97 8.30C22.97 8.55 23.18 8.76 23.44 8.76L27.02 8.76C27.29 8.76 27.48 8.55 27.48 8.30C27.48 8.04 27.29 7.83 27.02 7.83L23.91 7.83L23.91 0.81C23.91 0.56 23.70 0.35 23.44 0.35C23.18 0.35 22.97 0.56 22.97 0.81ZM39.35 3.88L39.35 3.88C39.00 2.77 38.30 1.83 37.39 1.16C36.48 0.52 35.39 0.14 34.19 0.14C27.09 0.14 27.09 10.82 34.19 10.82C35.39 10.82 36.48 10.43 37.39 9.79C38.30 9.13 39.00 8.18 39.35 7.08C39.42 6.83 39.30 6.55 39.05 6.48C38.79 6.41 38.51 6.54 38.44 6.79C38.15 7.70 37.59 8.47 36.82 9.02C36.09 9.55 35.18 9.86 34.19 9.86C28.35 9.86 28.35 1.09 34.19 1.09C35.18 1.09 36.09 1.41 36.82 1.93C37.59 2.49 38.15 3.26 38.44 4.16C38.51 4.41 38.79 4.55 39.05 4.47C39.30 4.40 39.42 4.13 39.35 3.88ZM31.30 7.17L31.30 7.17C31.60 7.69 32.02 8.12 32.52 8.43C33.03 8.71 33.60 8.88 34.19 8.88C35.13 8.88 35.97 8.50 36.58 7.87C37.17 7.25 37.55 6.41 37.55 5.47C37.55 4.54 37.17 3.70 36.58 3.08C35.97 2.46 35.13 2.09 34.19 2.09C33.60 2.09 33.03 2.24 32.52 2.53C32.02 2.83 31.60 3.26 31.30 3.78C31.16 4.02 31.25 4.31 31.47 4.44C31.71 4.56 31.99 4.48 32.12 4.24C32.34 3.88 32.65 3.57 33.01 3.36C33.36 3.15 33.75 3.04 34.19 3.04C34.86 3.04 35.46 3.32 35.88 3.75C36.33 4.19 36.60 4.80 36.60 5.47C36.60 6.16 36.33 6.78 35.88 7.21C35.46 7.66 34.86 7.92 34.19 7.92C33.75 7.92 33.35 7.80 33.01 7.59C32.65 7.39 32.34 7.07 32.12 6.71C31.99 6.47 31.71 6.40 31.47 6.52C31.25 6.66 31.16 6.93 31.30 7.17ZM42.18 10.18L42.18 10.18L42.18 0.81C42.18 0.56 41.99 0.36 41.72 0.36C41.47 0.36 41.26 0.56 41.26 0.81L41.26 10.18C41.26 10.43 41.47 10.65 41.72 10.65C41.99 10.65 42.18 10.43 42.18 10.18ZM49.83 10.18L49.83 10.18L49.83 0.81C49.83 0.56 49.62 0.36 49.35 0.36C49.10 0.36 48.89 0.56 48.89 0.81L48.89 10.18C48.89 10.43 49.10 10.65 49.35 10.65C49.62 10.65 49.83 10.43 49.83 10.18ZM48.05 9.91L48.05 9.91L43.97 4.09C43.83 3.86 43.53 3.81 43.33 3.98C43.19 4.06 43.13 4.20 43.13 4.35L43.13 10.18C43.13 10.43 43.33 10.64 43.58 10.64C43.85 10.64 44.06 10.43 44.06 10.18L44.06 5.84L47.28 10.44C47.43 10.65 47.71 10.71 47.94 10.57C48.13 10.40 48.19 10.12 48.05 9.91ZM43.04 1.09L43.04 1.09L47.10 6.92C47.25 7.13 47.53 7.18 47.74 7.03C47.88 6.94 47.95 6.79 47.95 6.64L47.95 0.81C47.95 0.56 47.74 0.36 47.49 0.36C47.24 0.36 47.01 0.56 47.01 0.81L47.01 5.17L43.79 0.56C43.65 0.35 43.36 0.28 43.15 0.45C42.94 0.59 42.88 0.87 43.04 1.09ZM59.79 9.63L59.79 9.63L59.79 5.49C59.79 4.87 58.86 4.87 58.86 5.49L58.86 9.35C56.15 10.68 52.63 9.10 52.57 5.57C52.51 2.23 55.62 0.39 58.91 1.46L58.91 1.46C59.57 1.68 59.86 0.78 59.19 0.57C55.27-0.69 51.56 1.60 51.63 5.59C51.70 9.84 56.04 11.97 59.54 10.04C59.70 9.95 59.79 9.80 59.79 9.63ZM59.05 2.51L59.05 2.51C58.42 2.24 57.71 2.11 56.88 2.14C52.44 2.30 52.64 8.83 56.90 8.83C57.25 8.83 57.89 8.82 57.89 8.32L57.89 5.49C57.89 4.87 56.94 4.87 56.94 5.49L56.94 7.88C53.82 7.91 53.72 3.19 56.91 3.07C57.58 3.05 58.17 3.15 58.67 3.37C59.23 3.61 59.61 2.77 59.05 2.51ZM72.14 3.88L72.14 3.88C71.79 2.77 71.09 1.83 70.18 1.16C69.27 0.52 68.18 0.14 66.98 0.14C59.88 0.14 59.88 10.82 66.98 10.82C68.18 10.82 69.27 10.43 70.18 9.79C71.09 9.13 71.79 8.18 72.14 7.08C72.21 6.83 72.09 6.55 71.83 6.48C71.58 6.41 71.30 6.54 71.23 6.79C70.94 7.70 70.38 8.47 69.61 9.02C68.88 9.55 67.97 9.86 66.98 9.86C61.14 9.86 61.14 1.09 66.98 1.09C67.97 1.09 68.88 1.41 69.61 1.93C70.38 2.49 70.94 3.26 71.23 4.16C71.30 4.41 71.58 4.55 71.83 4.47C72.09 4.40 72.21 4.13 72.14 3.88ZM64.09 7.17L64.09 7.17C64.39 7.69 64.81 8.12 65.31 8.43C65.81 8.71 66.39 8.88 66.98 8.88C67.91 8.88 68.75 8.50 69.37 7.87C69.96 7.25 70.34 6.41 70.34 5.47C70.34 4.54 69.96 3.70 69.37 3.08C68.75 2.46 67.91 2.09 66.98 2.09C66.39 2.09 65.81 2.24 65.31 2.53C64.81 2.83 64.39 3.26 64.09 3.78C63.95 4.02 64.04 4.31 64.26 4.44C64.50 4.56 64.78 4.48 64.90 4.24C65.13 3.88 65.44 3.57 65.80 3.36C66.15 3.15 66.54 3.04 66.98 3.04C67.65 3.04 68.25 3.32 68.67 3.75C69.12 4.19 69.38 4.80 69.38 5.47C69.38 6.16 69.12 6.78 68.67 7.21C68.25 7.66 67.65 7.92 66.98 7.92C66.54 7.92 66.14 7.80 65.80 7.59C65.44 7.39 65.13 7.07 64.90 6.71C64.78 6.47 64.50 6.40 64.26 6.52C64.04 6.66 63.95 6.93 64.09 7.17ZM76.76 0.78C76.76 0.50 76.54 0.31 76.29 0.31C76.02 0.31 75.82 0.50 75.82 0.78L75.82 6.40C75.82 6.65 76.02 6.86 76.29 6.86C76.54 6.86 76.76 6.65 76.76 6.40ZM73.96 6.40C73.96 6.65 74.16 6.86 74.41 6.86C74.66 6.86 74.89 6.65 74.89 6.40L74.89 0.78C74.89 0.53 74.66 0.31 74.41 0.31C74.16 0.31 73.96 0.53 73.96 0.78ZM75.35 7.60C74.58 7.60 74.12 8.02 73.89 8.57C73.71 8.96 73.71 9.44 73.89 9.81C74.12 10.33 74.58 10.77 75.35 10.77C76.10 10.77 76.59 10.33 76.80 9.81C76.97 9.42 76.97 8.96 76.80 8.57C76.61 8.02 76.10 7.60 75.35 7.60ZM75.95 8.92C76.02 9.09 76.02 9.28 75.95 9.46C75.87 9.67 75.67 9.84 75.35 9.84C75.03 9.84 74.82 9.69 74.75 9.48C74.66 9.28 74.66 9.09 74.75 8.92C74.82 8.71 75.03 8.54 75.35 8.54C75.67 8.54 75.87 8.71 75.95 8.92Z"></path></g><defs data-v-fde0c5aa=""><!----></defs><g data-v-fde0c5aa="" id="63a39205-ad62-4c3b-ab3e-2693cbe2285b" stroke="none" fill="#9CAFCE" transform="matrix(0.8091730635757098,0,0,0.8091730635757098,113.58721213909305,86.38081820863958)"><path d="M0 0v90h90V0H0zm47 74h-4v-4h4v4zm36.333 0h-20v-4h16V19.333H65.667V53h-34V9.333H11v69h7V13h4v69.333H7v-77h28.667V49h26V15.333h21.666V74z"></path></g><!----></svg>