<svg data-v-fde0c5aa="" xmlns="http://www.w3.org/2000/svg" viewBox="0 0 300 300" class="iconAbove"><!----><defs data-v-fde0c5aa=""><!----></defs><rect data-v-fde0c5aa="" fill="transparent" x="0" y="0" width="300px" height="300px" class="logo-background-square"></rect><defs data-v-fde0c5aa=""><!----></defs><g data-v-fde0c5aa="" id="665fd97a-3df4-4d76-a3a3-9177fa183caa" fill="#000000" transform="matrix(2.376382500939467,0,0,2.376382500939467,17.433506797002075,165.72516172978135)"><path d="M4.31 13.92L4.31 13.92L4.31 13.92Q2.84 13.92 1.96 12.99L1.96 12.99L1.96 12.99Q1.08 12.05 1.08 10.02L1.08 10.02L1.08 3.95L2.52 3.95L2.52 10.02L2.52 10.02Q2.52 12.56 4.31 12.56L4.31 12.56L4.31 12.56Q6.12 12.56 6.12 10.02L6.12 10.02L6.12 3.95L7.55 3.95L7.55 10.02L7.55 10.02Q7.55 12.04 6.67 12.98L6.67 12.98L6.67 12.98Q5.80 13.92 4.31 13.92ZM11.27 13.75L9.83 13.75L9.83 3.95L13.08 3.95L13.08 3.95Q14.74 3.95 15.52 4.81L15.52 4.81L15.52 4.81Q16.30 5.67 16.30 6.93L16.30 6.93L16.30 6.93Q16.30 8.11 15.49 9.01L15.49 9.01L15.49 9.01Q14.69 9.91 13.08 9.91L13.08 9.91L11.27 9.91L11.27 13.75ZM11.27 5.28L11.27 8.58L13.16 8.58L13.16 8.58Q14.01 8.58 14.43 8.09L14.43 8.09L14.43 8.09Q14.84 7.60 14.84 6.93L14.84 6.93L14.84 6.93Q14.84 6.29 14.45 5.78L14.45 5.78L14.45 5.78Q14.06 5.28 13.16 5.28L13.16 5.28L11.27 5.28ZM24.85 10.26L18.27 10.26L18.27 8.92L24.85 8.92L24.85 10.26ZM30.44 13.92L30.44 13.92L30.44 13.92Q29.44 13.92 28.69 13.48L28.69 13.48L28.69 13.48Q27.94 13.05 27.51 12.31L27.51 12.31L27.51 12.31Q27.08 11.58 26.87 10.70L26.87 10.70L26.87 10.70Q26.66 9.83 26.66 8.85L26.66 8.85L26.66 8.85Q26.66 7.88 26.87 7.01L26.87 7.01L26.87 7.01Q27.09 6.13 27.53 5.40L27.53 5.40L27.53 5.40Q27.97 4.66 28.72 4.22L28.72 4.22L28.72 4.22Q29.47 3.78 30.44 3.78L30.44 3.78L30.44 3.78Q31.54 3.78 32.25 4.32L32.25 4.32L32.25 4.32Q32.96 4.86 33.31 5.68L33.31 5.68L32.02 6.31L32.02 6.31Q31.71 5.74 31.35 5.44L31.35 5.44L31.35 5.44Q31.00 5.14 30.44 5.14L30.44 5.14L30.44 5.14Q29.64 5.14 29.10 5.73L29.10 5.73L29.10 5.73Q28.56 6.33 28.36 7.13L28.36 7.13L28.36 7.13Q28.15 7.92 28.15 8.85L28.15 8.85L28.15 8.85Q28.15 10.36 28.74 11.46L28.74 11.46L28.74 11.46Q29.33 12.56 30.44 12.56L30.44 12.56L30.44 12.56Q31.49 12.56 32.07 11.30L32.07 11.30L33.38 11.80L33.38 11.80Q32.51 13.92 30.44 13.92ZM41.28 12.91L41.28 12.91L41.28 12.91Q40.36 13.92 38.81 13.92L38.81 13.92L38.81 13.92Q37.25 13.92 36.34 12.92L36.34 12.92L36.34 12.92Q35.42 11.91 35.42 10.18L35.42 10.18L35.42 10.18Q35.42 8.44 36.34 7.43L36.34 7.43L36.34 7.43Q37.25 6.43 38.81 6.43L38.81 6.43L38.81 6.43Q40.36 6.43 41.28 7.43L41.28 7.43L41.28 7.43Q42.20 8.44 42.20 10.16L42.20 10.16L42.20 10.16Q42.20 11.90 41.28 12.91ZM37.36 11.95L37.36 11.95L37.36 11.95Q37.87 12.60 38.81 12.60L38.81 12.60L38.81 12.60Q39.75 12.60 40.26 11.94L40.26 11.94L40.26 11.94Q40.78 11.28 40.78 10.16L40.78 10.16L40.78 10.16Q40.78 9.04 40.27 8.39L40.27 8.39L40.27 8.39Q39.76 7.74 38.81 7.74L38.81 7.74L38.81 7.74Q37.86 7.74 37.35 8.38L37.35 8.38L37.35 8.38Q36.85 9.02 36.85 10.18L36.85 10.18L36.85 10.18Q36.85 11.30 37.36 11.95ZM49.34 6.43L49.34 6.43L49.34 6.43Q50.23 6.43 50.66 7.03L50.66 7.03L50.66 7.03Q51.09 7.63 51.09 9.02L51.09 9.02L51.09 13.75L49.77 13.75L49.77 9.38L49.77 9.38Q49.77 8.51 49.62 8.13L49.62 8.13L49.62 8.13Q49.46 7.76 49.03 7.76L49.03 7.76L49.03 7.76Q48.58 7.76 48.35 8.20L48.35 8.20L48.35 8.20Q48.12 8.65 48.12 9.42L48.12 9.42L48.12 13.75L46.80 13.75L46.80 9.28L46.80 9.28Q46.80 7.76 46.06 7.76L46.06 7.76L46.06 7.76Q45.61 7.76 45.35 8.21L45.35 8.21L45.35 8.21Q45.09 8.67 45.09 9.42L45.09 9.42L45.09 13.75L43.78 13.75L43.78 6.59L45.01 6.59L45.01 7.53L45.01 7.53Q45.42 6.43 46.41 6.43L46.41 6.43L46.41 6.43Q46.91 6.43 47.26 6.74L47.26 6.74L47.26 6.74Q47.61 7.06 47.75 7.49L47.75 7.49L47.75 7.49Q48.34 6.43 49.34 6.43ZM54.47 15.92L53.07 16.58L53.07 6.59L54.47 6.59L54.47 7.17L54.47 7.17Q55.22 6.43 56.32 6.43L56.32 6.43L56.32 6.43Q57.76 6.43 58.60 7.42L58.60 7.42L58.60 7.42Q59.44 8.41 59.44 10.16L59.44 10.16L59.44 10.16Q59.44 11.91 58.58 12.92L58.58 12.92L58.58 12.92Q57.71 13.92 56.34 13.92L56.34 13.92L56.34 13.92Q55.15 13.92 54.47 13.12L54.47 13.12L54.47 15.92ZM56.14 12.60L56.14 12.60L56.14 12.60Q57.04 12.60 57.53 11.97L57.53 11.97L57.53 11.97Q58.02 11.34 58.02 10.16L58.02 10.16L58.02 10.16Q58.02 9.04 57.52 8.39L57.52 8.39L57.52 8.39Q57.02 7.74 56.11 7.74L56.11 7.74L56.11 7.74Q55.02 7.74 54.47 8.58L54.47 8.58L54.47 11.75L54.47 11.75Q55.12 12.60 56.14 12.60ZM67.15 12.91L67.15 12.91L67.15 12.91Q66.23 13.92 64.68 13.92L64.68 13.92L64.68 13.92Q63.13 13.92 62.21 12.92L62.21 12.92L62.21 12.92Q61.29 11.91 61.29 10.18L61.29 10.18L61.29 10.18Q61.29 8.44 62.21 7.43L62.21 7.43L62.21 7.43Q63.13 6.43 64.68 6.43L64.68 6.43L64.68 6.43Q66.23 6.43 67.15 7.43L67.15 7.43L67.15 7.43Q68.07 8.44 68.07 10.16L68.07 10.16L68.07 10.16Q68.07 11.90 67.15 12.91ZM63.23 11.95L63.23 11.95L63.23 11.95Q63.74 12.60 64.68 12.60L64.68 12.60L64.68 12.60Q65.62 12.60 66.14 11.94L66.14 11.94L66.14 11.94Q66.65 11.28 66.65 10.16L66.65 10.16L66.65 10.16Q66.65 9.04 66.14 8.39L66.14 8.39L66.14 8.39Q65.63 7.74 64.68 7.74L64.68 7.74L64.68 7.74Q63.73 7.74 63.22 8.38L63.22 8.38L63.22 8.38Q62.72 9.02 62.72 10.18L62.72 10.18L62.72 10.18Q62.72 11.30 63.23 11.95ZM73.68 6.43L73.68 6.43L73.68 6.43Q76.33 6.43 76.33 9.51L76.33 9.51L76.33 13.75L74.93 13.75L74.93 9.60L74.93 9.60Q74.93 7.74 73.36 7.74L73.36 7.74L73.36 7.74Q71.69 7.74 71.69 9.58L71.69 9.58L71.69 13.75L70.29 13.75L70.29 6.59L71.60 6.59L71.60 7.46L71.60 7.46Q71.86 7.00 72.42 6.71L72.42 6.71L72.42 6.71Q72.98 6.43 73.68 6.43ZM85.12 9.84L85.12 9.84L85.12 9.84Q85.12 10.37 85.08 10.72L85.08 10.72L80.15 10.72L80.15 10.72Q80.30 11.62 80.80 12.14L80.80 12.14L80.80 12.14Q81.30 12.66 82.10 12.66L82.10 12.66L82.10 12.66Q83.03 12.66 83.72 12.01L83.72 12.01L84.55 12.91L84.55 12.91Q83.54 13.92 82.08 13.92L82.08 13.92L82.08 13.92Q80.53 13.92 79.63 12.87L79.63 12.87L79.63 12.87Q78.74 11.83 78.74 10.16L78.74 10.16L78.74 10.16Q78.74 8.41 79.64 7.42L79.64 7.42L79.64 7.42Q80.54 6.43 82.08 6.43L82.08 6.43L82.08 6.43Q83.41 6.43 84.27 7.29L84.27 7.29L84.27 7.29Q85.12 8.16 85.12 9.84ZM80.12 9.51L80.12 9.51L83.73 9.51L83.73 9.51Q83.69 8.55 83.22 8.11L83.22 8.11L83.22 8.11Q82.74 7.66 82.08 7.66L82.08 7.66L82.08 7.66Q81.21 7.66 80.72 8.14L80.72 8.14L80.72 8.14Q80.23 8.62 80.12 9.51ZM90.93 6.43L90.93 6.43L90.93 6.43Q93.58 6.43 93.58 9.51L93.58 9.51L93.58 13.75L92.18 13.75L92.18 9.60L92.18 9.60Q92.18 7.74 90.61 7.74L90.61 7.74L90.61 7.74Q88.94 7.74 88.94 9.58L88.94 9.58L88.94 13.75L87.54 13.75L87.54 6.59L88.84 6.59L88.84 7.46L88.84 7.46Q89.11 7.00 89.67 6.71L89.67 6.71L89.67 6.71Q90.23 6.43 90.93 6.43ZM99.83 13.92L99.83 13.92L99.83 13.92Q97.87 13.92 97.87 12.04L97.87 12.04L97.87 7.83L96.31 7.83L96.31 6.59L97.87 6.59L97.87 4.31L99.27 3.64L99.27 6.59L101.68 6.59L101.68 7.83L99.27 7.83L99.27 11.70L99.27 11.70Q99.27 12.18 99.50 12.42L99.50 12.42L99.50 12.42Q99.72 12.66 100.30 12.66L100.30 12.66L100.30 12.66Q100.93 12.66 101.56 12.29L101.56 12.29L101.40 13.59L101.40 13.59Q100.79 13.92 99.83 13.92ZM107.80 13.92L107.80 13.92L107.80 13.92Q106.95 13.92 106.21 13.57L106.21 13.57L106.21 13.57Q105.48 13.23 105.01 12.64L105.01 12.64L105.95 11.82L105.95 11.82Q106.79 12.71 107.90 12.71L107.90 12.71L107.90 12.71Q108.46 12.71 108.81 12.50L108.81 12.50L108.81 12.50Q109.17 12.28 109.17 11.87L109.17 11.87L109.17 11.87Q109.17 11.30 107.59 10.65L107.59 10.65L107.59 10.65Q107.56 10.64 107.55 10.63L107.55 10.63L107.55 10.63Q107.53 10.63 107.51 10.61L107.51 10.61L107.51 10.61Q107.48 10.60 107.46 10.59L107.46 10.59L107.46 10.59Q107.44 10.58 107.41 10.57L107.41 10.57L107.41 10.57Q106.81 10.32 106.48 10.16L106.48 10.16L106.48 10.16Q106.16 10.00 105.80 9.73L105.80 9.73L105.80 9.73Q105.43 9.46 105.27 9.13L105.27 9.13L105.27 9.13Q105.11 8.79 105.11 8.34L105.11 8.34L105.11 8.34Q105.11 7.46 105.86 6.94L105.86 6.94L105.86 6.94Q106.61 6.43 107.76 6.43L107.76 6.43L107.76 6.43Q109.35 6.43 110.33 7.55L110.33 7.55L109.41 8.32L109.41 8.32Q108.64 7.63 107.70 7.63L107.70 7.63L107.70 7.63Q107.13 7.63 106.78 7.83L106.78 7.83L106.78 7.83Q106.43 8.02 106.43 8.36L106.43 8.36L106.43 8.36Q106.43 8.85 107.97 9.45L107.97 9.45L107.97 9.45Q108.02 9.48 108.05 9.49L108.05 9.49L108.05 9.49Q108.56 9.69 108.78 9.79L108.78 9.79L108.78 9.79Q109.00 9.88 109.40 10.11L109.40 10.11L109.40 10.11Q109.80 10.33 109.99 10.54L109.99 10.54L109.99 10.54Q110.18 10.75 110.33 11.10L110.33 11.10L110.33 11.10Q110.49 11.44 110.49 11.84L110.49 11.84L110.49 11.84Q110.49 12.81 109.76 13.36L109.76 13.36L109.76 13.36Q109.03 13.92 107.80 13.92Z"></path></g><defs data-v-fde0c5aa=""><linearGradient data-v-fde0c5aa="" gradientTransform="rotate(25)" id="e174329d-5293-4fc4-9758-8ae14e305309" x1="0%" y1="0%" x2="100%" y2="0%"><stop data-v-fde0c5aa="" offset="0%" stop-color="#0A3732" stop-opacity="1"></stop><stop data-v-fde0c5aa="" offset="100%" stop-color="#55C388" stop-opacity="1"></stop></linearGradient></defs><g data-v-fde0c5aa="" id="65b9f720-1ac2-4668-abb1-d478fa5c8b0a" stroke="none" fill="url(#e174329d-5293-4fc4-9758-8ae14e305309)" transform="matrix(0.6524762202381114,0,0,0.6524762202381114,117.37618961034424,92.99365433567829)"><path d="M87.89 23.5L54 3.94c-2.43-1.41-5.57-1.41-8 0L12.11 23.5c-2.47 1.43-4 4.08-4 6.93v39.14c0 2.85 1.53 5.5 4 6.93L46 96.06c1.21.71 2.6 1.08 4 1.08s2.79-.37 4-1.08L87.89 76.5c2.47-1.43 4-4.08 4-6.93V30.43c0-2.85-1.53-5.5-4-6.93zm0 46.07c0 1.42-.76 2.75-2 3.46L52 92.6c-1.21.7-2.79.7-4 0L14.11 73.03c-1.24-.71-2-2.04-2-3.46V30.43c0-1.42.76-2.75 2-3.46L48 7.4c.61-.35 1.3-.54 2-.54s1.39.19 2 .54l33.89 19.57c1.24.71 2 2.04 2 3.46v39.14z"></path><path d="M66 43l-3 3-11-11v38h-4V35L37 46l-3-3 16-16z"></path></g><!----></svg>